# xmcd CD database file
#
# Track frame offsets:
#	150
#	14930
#	30437
#	44340
#	60050
#	82965
#	97470
#	115562
#	126827
#	142445
#
# Disc length: 2164 seconds
#
# Revision: 1
# Processed by: cddbd v1.5.2PL0 Copyright (c) Steve Scherf et al.
# Submitted via: CDex 1.60beta1
#
DISCID=8808720a
DTITLE=Gibson Miller Band - Red, White And Blue Collar
DYEAR=1994
DGENRE=Country
TTITLE0=Red, White And Blue Collar
TTITLE1=Mammas Don't Let Your Babies Grow Up To Be Cowboys
TTITLE2=The Fugitive
TTITLE3=All Because Of You
TTITLE4=Haunted Honky Tonk
TTITLE5=Right Off The Top Of My Heart
TTITLE6=Johnny Get Your Gun
TTITLE7=Sudden Stop
TTITLE8=Heavy Metal Rocker
TTITLE9=What Are You Waiting For
EXTD=ARD Epic 4772912 1994 YEAR: 1994
EXTT0=
EXTT1=
EXTT2=
EXTT3=
EXTT4=
EXTT5=
EXTT6=
EXTT7=
EXTT8=
EXTT9=
PLAYORDER=
